<svg version="1" xmlns="http://www.w3.org/2000/svg" width="300" height="70" viewBox="0 0 300 70"><path d="M36.854 11.765c-4.823-1.628-7.366-2.757-7.366-6.08 0-2.504 2.32-3.96 4.853-3.96 4.67 0 7.29 3.172 8.33 8.428h1.13V1.035h-.97l-1.29 2.85h-.14C40.1 2.21 37.63.54 34.38.54c-5.018 0-8.95 3.498-8.95 7.975 0 5.548 4.01 7.785 9.092 9.425 4.744 1.516 6.746 3.242 6.746 6.026 0 3.5-1.663 5.01-5.705 5.01-2.398 0-4.624-.872-6.285-2.784-1.566-1.808-2.418-4.13-2.916-6.982H25.24v10.53h.912l1.668-3.156h.134c1.58 1.915 4.196 3.593 7.605 3.593 6.17 0 9.92-3.932 9.92-9.044 0-5.114-3.58-7.652-8.63-9.368zM274.078 4.34C272.68 2.348 270.276.5 266.56.5c-8.397 0-14.05 6.845-14.05 14.91 0 8.052 5.38 14.923 14.002 14.923 5.543 0 9.61-2.854 10.845-9.413l-1.193-.344c-1.15 5.347-4.002 8.442-8.942 8.442-5.242 0-8.01-4.2-8.01-13.61 0-9.374 2.49-13.683 7.387-13.683 4.8 0 7.8 3.33 9.15 10.272h1.3V.993h-.76l-2.14 3.347h-.09zM71.18 4.193C69.783 2.198 67.564.5 63.85.5c-8.4 0-14.054 6.845-14.054 14.91 0 8.052 5.386 14.923 14.007 14.923 5.543 0 9.605-2.854 10.847-9.413l-1.195-.197c-1.41 5.2-3.67 8.295-8.945 8.295-5.242 0-8.008-4.2-8.008-13.61 0-9.374 2.605-13.683 7.157-13.683 4.8 0 7.8 3.33 9.15 10.272h1.07V.993h-.99l-1.64 3.2h-.09zm20.695 24.384h-4.27V2.124h4.27V.98H77.35v1.144h4.273v26.453H77.35v1.183h14.525zm97.515 0v1.183h14.524v-1.183h-4.268V2.124h4.268V.98H189.39v1.144h4.272v26.453zm45.983-26.453h4.273v26.453h-4.273v1.183h14.523v-1.183h-4.27V2.124h4.27V.98h-14.523zM122.397 19.037h-.667c-.907 3.045-2.137 5.638-3.71 7.456-1.63 1.87-3.222 2.067-6.255 2.067l-4.61.005V15.887h2.165c1.683 0 2.904.324 3.718 1.198 1.024.954 1.7 2.794 1.73 4.774h.783V8.71h-.78c-.03 2.002-.88 3.818-1.75 4.78-.78.873-1.99 1.19-3.7 1.19h-2.16V2.132h5.16c2.42 0 4.06.596 5.08 1.577 1.71 1.42 2.81 3.37 3.87 7.14h.68V.98H96.9v1.153h4.273v26.44l-4.273.004v1.183h25.5V19.037zm10.543-13.72l18.105 24.44h1.86V4.607c0-1.627.7-2.47 2.14-2.47h1.877V.98h-9.552v1.153h1.937c1.46 0 2.144.857 2.144 2.47v16.204h-.12L136.94.98h-10.875v1.153h1.2c1.53 0 2.535.386 3.262 1.21.647.635.89 1.23.89 1.845v20.778c0 1.566-.65 2.602-2.138 2.602l-2.19-.005v1.195h10.32v-1.195l-2.43.005c-1.44-.01-2.13-1.113-2.13-2.602V5.318h.07zm31.31-1.4c1.013-.994 2.16-1.72 4.12-1.72h1.037v26.38h-4.383v1.183h14.74v-1.183h-4.375V2.197h.81c1.97 0 3.35.653 4.34 1.67 1.67 1.568 2.66 3.96 3.57 7.524h1.13V.98h-25.67V11.3h1.12c.91-3.56 1.92-5.782 3.55-7.384zm43.877 24.66v1.183h14.603v-1.183h-4.333V15.772h1.81c1.37 0 2.57.39 3.357 1.228 1.193 1.046 1.8 3.125 1.833 4.806h1.238V8.566h-1.238c-.032 1.636-.685 3.55-1.678 4.624-.89.956-2.15 1.39-3.52 1.39h-1.81V2.118h4.2c2.52 0 4.05.533 5.31 1.763 1.28 1.26 2.5 3.34 3.61 7.02h1.07V.98h-24.46v1.13l4.27.004v26.463h-4.28zm-8.902 39.365c-1.658 0-3.12-.26-4.7-1.103-2.905-1.82-4.284-5.89-4.284-12.51 0-6.9 1.27-10.43 3.72-12.33 1.28-.9 3.03-1.36 4.67-1.36 4.61 0 9.37 2.93 10.63 10.27h1.17v-11h-.99l-2.01 3.56h-.08c-1.4-2-5.04-4.07-8.76-4.07-8.4 0-15.03 6.85-15.03 14.91 0 8.05 6.24 14.91 15.5 14.91 5.54 0 10.44-2.85 11.68-9.41l-1.24-.35c-1.15 5.35-4.48 8.45-10.24 8.45zm-34.2-26.705h4.382V67.69h-4.382v1.143h14.74V67.69h-4.376V41.237h4.37v-1.15h-14.74zm100.975 0h2.398c1.457 0 2.14.86 2.14 2.473v16.373h-.123l-15.773-19.996h-10.638v1.153h1.195c1.53 0 2.38.498 3.02 1.126.64.63.89 1.32.89 1.925v20.79c0 1.56-.66 2.6-2.13 2.6h-2.43v1.16h10.55v-1.16h-2.42c-1.44-.01-2.12-1.11-2.12-2.59V44.43h.07l19.48 24.67h1.86V43.71c0-1.63.7-2.473 2.14-2.473h2.33v-1.15H266v1.15zM118.812 65.18c-1.64 1.863-3.55 2.485-6.584 2.485l-5.05.005V54.983h2.21c1.687 0 2.905.33 3.72 1.203 1.023.954 1.7 2.816 1.727 4.8h1.243V47.798h-1.243c-.028 2-.87 3.854-1.746 4.8-.78.882-2 1.19-3.71 1.19h-2.21V41.232h5.41c2.41 0 4.17.622 5.19 1.6 1.7 1.423 2.86 3.373 3.9 7.123h1.11v-9.87H96.77v1.146h4.415v26.45H96.77v1.16h26.63V58.18h-.657c-.854 2.985-2.306 5.17-3.934 7.006zm-44.426-5.304h-.334l-8.09-19.79H54.34v1.152h4.682v23.714c0 1.67-.715 2.7-2.174 2.712H54.38v1.17h10.703v-1.17h-2.48c-1.427-.012-2.127-1.116-2.127-2.712V42.36h.12L71.24 68.93h1.164l9.577-26.57h.11v25.323h-4.33v1.15h14.72v-1.15h-4.42V41.237h4.44v-1.15H81.46l-7.074 19.79zm65.474-18.64h4.47c1.336 0 2.675.28 3.43.708 1.698.96 2.296 2.72 2.296 5.22 0 2.468-.588 4.388-2.11 5.406-.75.535-2.036.772-3.31.772h-4.777V41.237zM158 67.316c-1.116 0-1.733-.3-2.117-1.604-.254-.872-.426-2.705-.585-4.36-.426-4.43-3.262-6.22-7.316-6.98v-.096c5.072-.424 8.205-3.053 8.205-7.132 0-4.437-3.283-7.054-10.617-7.054h-16.1v1.145l4.4.006v26.45h-4.4v1.15h14.63v-1.15h-4.242V54.57h4.597c2.75 0 4.437 1.17 4.572 4.393.022.266.15 3.45.172 3.71.2 4.617 2.76 6.68 6.29 6.68 4.45 0 6.24-2.014 6.28-6.284l-1.25-.03c-.05 3-.98 4.27-2.52 4.27zm-127.092-8.66l4.2-11.174h.133l4.06 11.173h-8.39zm19.54 9.01c-1.295 0-1.723-.726-2.27-2.195l-9.536-25.42H36.58l-9.333 24.49c-.782 1.98-1.4 3.13-3.217 3.13h-1.387v1.17h9.22v-1.17h-1.96c-1.846 0-1.854-1.43-1.157-3.27l1.708-4.53h9.28l2.095 5.78c.41 1.21.57 2.03-.86 2.03h-2.24v1.17h13.69v-1.17h-1.98zm170.092-9.01l4.202-11.174h.132l4.06 11.174h-8.393zm19.544 9.01c-1.295 0-1.723-.726-2.27-2.195l-9.536-25.42h-2.064l-9.334 24.49c-.77 1.98-1.39 3.13-3.21 3.13h-1.383v1.17h9.217v-1.17h-1.965c-1.85 0-1.85-1.43-1.15-3.27l1.7-4.53h9.28l2.1 5.78c.41 1.21.57 2.03-.87 2.03h-2.24v1.17h13.7v-1.17h-1.98z" fill="#231F20"/><path d="M283.458 40.597h-2.15v-.595h4.94v.595h-2.15v6.067h-.64v-6.067zm4.852-.595h.827l2.232 5.834h.01l2.21-5.834h.84v6.662h-.64v-5.58h-.02c-.09.296-.25.737-.42 1.17l-1.73 4.41h-.59l-1.73-4.41c-.16-.433-.27-.712-.42-1.19h-.02v5.6h-.59v-6.662z" fill="#010101"/></svg>